PathFileType	4	(X/Y/Z)	D:\Share\Shared_Data\Ergonomics\Sit To Stand Pertubation\S2\Unperturbed.trc
DataRate	CameraRate	NumFrames	NumMarkers	Units	OrigDataRate	OrigDataStartFrame	OrigNumFrames	
100	100	7	18	m	100	2611	261
Frame#	Time	R_Toe			R_ASIS			R_Pelvis			V_Sacral			L_Pelvis			L_ASIS			Clavical			R_Acromium			L_Acromium			Sternum			Torso			R_Thigh_Med			R_Thigh_Lat			R_Thigh			R_Shank_Med			R_Shank_Lat			R_Shank			R_Heel			
		X1	Y1	Z1	X2	Y2	Z2	X3	Y3	Z3	X4	Y4	Z4	X5	Y5	Z5	X6	Y6	Z6	X7	Y7	Z7	X8	Y8	Z8	X9	Y9	Z9	X10	Y10	Z10	X11	Y11	Z11	X12	Y12	Z12	X13	Y13	Z13	X14	Y14	Z14	X15	Y15	Z15	X16	Y16	Z16	X17	Y17	Z17	X18	Y18	Z18	

2611	26.1	0.44145535	0.065354324	0.13941643	-0.027728695	0.64833087	0.13251997	-0.10663806	0.63782275	0.1712532	-0.23243806	0.56665594	0.015164264	-0.14580835	0.62918201	-0.16577411	-0.053013008	0.65253082	-0.13839268	-0.012460147	1.0229232	-0.0061328292	-0.10196674	1.0498043	0.19920795	-0.11611784	1.0518259	-0.19012672	0.026822956	0.86226068	-0.0068203864	-0.0066356301	0.97930042	-0.12204546	0.38197104	0.50397354	0.11393557	0.3527308	0.51270245	0.21790155	0.19171933	0.6228609	0.16267998	0.30449542	0.10981512	0.10856046	0.28841071	0.1035162	0.20114229	0.34342755	0.36113239	0.23303397	0.20471486	0.063663403	0.15501553
2612	26.11	0.44144525	0.065364044	0.13942264	-0.027621132	0.64828906	0.13251889	-0.10655598	0.63786218	0.17125366	-0.2323923	0.56674695	0.01516445	-0.14572289	0.62922137	-0.16577763	-0.052891102	0.65247687	-0.13838383	-0.011751616	1.0227855	-0.0060709968	-0.10127695	1.0497975	0.19923416	-0.11531454	1.0518479	-0.19009785	0.027293102	0.86205328	-0.0067714071	-0.0059612594	0.97915411	-0.12200482	0.38195688	0.50395566	0.11397626	0.35272852	0.51268915	0.21793771	0.19172382	0.62285504	0.16270842	0.30447842	0.10980921	0.10857101	0.28839612	0.10349762	0.20115094	0.34337289	0.3610896	0.23301596	0.20470593	0.063648998	0.15501718
2613	26.12	0.44143338	0.065374123	0.13943057	-0.027523289	0.64824432	0.13251845	-0.10648164	0.63790094	0.17125818	-0.23235287	0.56683002	0.015165754	-0.14564319	0.62925671	-0.16578206	-0.052763607	0.6524231	-0.13837244	-0.011007012	1.0226351	-0.0060098033	-0.10054939	1.0497869	0.19926399	-0.11446896	1.0518662	-0.19006851	0.027780096	0.86182642	-0.0067226357	-0.0052532763	0.97899481	-0.12195747	0.38193268	0.50393207	0.1140131	0.35271753	0.51267255	0.21797025	0.19172166	0.62284552	0.16273274	0.30445905	0.10980145	0.10858346	0.28838034	0.10347569	0.20116095	0.34331436	0.361052	0.23300287	0.2046956	0.06363065	0.15502159
2614	26.13	0.44141962	0.065385124	0.13944055	-0.027434612	0.64819806	0.13251907	-0.10641591	0.63793738	0.17126634	-0.23232033	0.56690326	0.015168589	-0.14556837	0.62928857	-0.16578662	-0.05263118	0.65236829	-0.13836017	-0.010224213	1.0224698	-0.0059502692	-0.099780464	1.0497717	0.19929918	-0.11358008	1.0518781	-0.19003876	0.02828722	0.86158051	-0.0066721039	-0.0045100584	0.9788219	-0.12190438	0.38189999	0.50390137	0.11404567	0.35269836	0.51265216	0.21799968	0.19171356	0.62283246	0.1627531	0.30443713	0.10979192	0.10859872	0.28836301	0.10344994	0.2011731	0.34325204	0.36101974	0.232998	0.20468376	0.063607559	0.15502914
2615	26.14	0.44140387	0.065397583	0.13945319	-0.027353449	0.64815186	0.13252132	-0.10635956	0.63796973	0.17127693	-0.2322944	0.56696698	0.015172375	-0.14549684	0.62931793	-0.16579092	-0.052495667	0.65231085	-0.138349	-0.0094006233	1.0222881	-0.0058914738	-0.098966644	1.0497516	0.19933954	-0.11264619	1.0518828	-0.19000838	0.028817841	0.86131653	-0.006617022	-0.0037300808	0.97863434	-0.121848	0.3818606	0.50386273	0.11407413	0.35267224	0.51262793	0.21802667	0.1917009	0.62281665	0.16276997	0.30441245	0.10978078	0.10861762	0.28834326	0.10341968	0.20118805	0.34318466	0.36099072	0.23300113	0.20467024	0.063578873	0.15504004
2616	26.15	0.44138574	0.065412041	0.13946898	-0.027277739	0.64810626	0.1325256	-0.10631349	0.63799713	0.1712888	-0.23227394	0.56702362	0.015175967	-0.14542682	0.62934668	-0.16579468	-0.052360401	0.65224908	-0.13834071	-0.0085333862	1.0220895	-0.0058319769	-0.098104637	1.0497257	0.1993821	-0.11166497	1.0518798	-0.18997717	0.029374134	0.8610351	-0.0065554466	-0.0029118719	0.97843079	-0.12179126	0.38181595	0.50381601	0.11409952	0.35264081	0.51259943	0.21805206	0.19168539	0.62279877	0.16278406	0.3043847	0.10976834	0.1086408	0.28831995	0.10338411	0.20120644	0.34311087	0.36096231	0.23301062	0.20465463	0.063543961	0.15505405
2617	26.16	0.4413652	0.065428947	0.13948854	-0.027205376	0.64806079	0.13253186	-0.10627901	0.63801898	0.17130151	-0.23225726	0.56707709	0.015178413	-0.14535672	0.62937659	-0.16579749	-0.052229366	0.65218219	-0.13833649	-0.0076199713	1.0218731	-0.0057714896	-0.097191643	1.0496927	0.19942241	-0.11063372	1.0518685	-0.18994508	0.029957109	0.86073615	-0.006487184	-0.0020533969	0.97820935	-0.12173593	0.38176727	0.50376184	0.11412368	0.35260583	0.51256677	0.21807686	0.19166884	0.6227796	0.16279636	0.30435364	0.10975518	0.10866887	0.28829233	0.10334242	0.20122903	0.34302982	0.36093185	0.23302489	0.20463658	0.063502758	0.15507036
